<svg width="78" height="78" viewBox="0 0 78 78" fill="none" xmlns="http://www.w3.org/2000/svg">
<path opacity="0.2" d="M39 9.75C44.9186 9.74827 50.6985 11.5421 55.5761 14.8944C60.4537 18.2468 64.1996 23 66.319 28.5261C68.4383 34.0522 68.8314 40.0913 67.4462 45.8455C66.0611 51.5997 62.9629 56.7984 58.5609 60.7547C56.7267 57.1427 53.9282 54.1092 50.4756 51.9903C47.0229 49.8713 43.051 48.7498 39 48.75C41.4105 48.75 43.7668 48.0352 45.771 46.696C47.7752 45.3569 49.3373 43.4534 50.2598 41.2265C51.1822 38.9995 51.4236 36.549 50.9533 34.1848C50.4831 31.8207 49.3223 29.6491 47.6179 27.9446C45.9134 26.2402 43.7418 25.0794 41.3777 24.6092C39.0135 24.1389 36.563 24.3803 34.336 25.3027C32.1091 26.2252 30.2056 27.7873 28.8665 29.7915C27.5273 31.7957 26.8125 34.152 26.8125 36.5625C26.8125 39.7948 28.0965 42.8948 30.3821 45.1804C32.6677 47.466 35.7677 48.75 39 48.75C34.949 48.7498 30.9771 49.8713 27.5244 51.9903C24.0718 54.1092 21.2733 57.1427 19.4391 60.7547C15.0371 56.7984 11.9389 51.5997 10.5538 45.8455C9.16861 40.0913 9.56167 34.0522 11.681 28.5261C13.8003 23 17.5462 18.2468 22.4239 14.8944C27.3015 11.5421 33.0814 9.74827 39 9.75Z" fill="#A78BFA"/>
<path d="M7.3125 39C7.31082 33.729 8.62408 28.5408 11.1333 23.9053C13.6426 19.2698 17.2685 15.3336 21.6828 12.4529C26.0971 9.57232 31.1602 7.83838 36.4137 7.40816C41.6671 6.97794 46.9449 7.86503 51.769 9.98908C56.5932 12.1131 60.8112 15.4071 64.0412 19.5725C67.2712 23.738 69.411 28.6434 70.2669 33.8445C71.1229 39.0455 70.6678 44.378 68.943 49.3588C67.2182 54.3397 64.2781 58.8116 60.3891 62.3695L59.993 62.7352C54.2001 67.8586 46.7335 70.6868 39 70.6868C31.2665 70.6868 23.7999 67.8586 18.007 62.7352L17.6109 62.3695C14.3626 59.4053 11.7688 55.7957 9.99543 51.7716C8.22209 47.7475 7.30829 43.3975 7.3125 39ZM65.8125 39C65.8141 34.6574 64.7609 30.3794 62.7435 26.5339C60.726 22.6883 57.8048 19.3904 54.2308 16.9236C50.6569 14.4568 46.5373 12.8949 42.2262 12.3724C37.9152 11.8499 33.5418 12.3823 29.482 13.9238C25.4222 15.4654 21.7976 17.9699 18.9199 21.2222C16.0422 24.4744 13.9974 28.3769 12.9615 32.5941C11.9256 36.8113 11.9296 41.2171 12.973 45.4324C14.0164 49.6478 16.0681 53.5467 18.9516 56.7938C21.6693 52.8523 25.4981 49.8084 29.9508 48.0492C27.5626 46.1682 25.8199 43.5898 24.9651 40.6724C24.1103 37.7551 24.1858 34.6439 25.1812 31.7714C26.1765 28.899 28.0423 26.4081 30.5189 24.6452C32.9955 22.8823 35.96 21.935 39 21.935C42.04 21.935 45.0044 22.8823 47.4811 24.6452C49.9577 26.4081 51.8235 28.899 52.8188 31.7714C53.8142 34.6439 53.8897 37.7551 53.0349 40.6724C52.1801 43.5898 50.4374 46.1682 48.0492 48.0492C52.5019 49.8084 56.3307 52.8523 59.0484 56.7938C63.4135 51.8955 65.8215 45.561 65.8125 39ZM48.75 36.5625C48.75 34.6341 48.1782 32.7491 47.1068 31.1457C46.0355 29.5423 44.5127 28.2926 42.7312 27.5547C40.9496 26.8167 38.9892 26.6236 37.0979 26.9998C35.2066 27.3761 33.4693 28.3047 32.1057 29.6682C30.7421 31.0318 29.8135 32.7691 29.4373 34.6604C29.0611 36.5517 29.2542 38.5121 29.9922 40.2937C30.7301 42.0752 31.9798 43.598 33.5832 44.6693C35.1866 45.7407 37.0716 46.3125 39 46.3125C41.5834 46.3045 44.0587 45.2747 45.8854 43.4479C47.7122 41.6212 48.742 39.1459 48.75 36.5625ZM55.4227 60.1758C53.6588 57.4206 51.23 55.1535 48.3601 53.5832C45.4903 52.0129 42.2714 51.1899 39 51.1899C35.7286 51.1899 32.5097 52.0129 29.6398 53.5832C26.7699 55.1535 24.3412 57.4206 22.5773 60.1758C27.2729 63.8275 33.0516 65.81 39 65.81C44.9484 65.81 50.7271 63.8275 55.4227 60.1758Z" fill="#A78BFA"/>
</svg>
